<svg xmlns="http://www.w3.org/2000/svg" xmlns:xlink="http://www.w3.org/1999/xlink" version="1.1" width="13" height="7" style="" xml:space="preserve"><rect id="backgroundrect" width="100%" height="100%" x="0" y="0" fill="none" stroke="none" class="" style=""/>
















<g class="currentLayer" style=""><title>Layer 1</title><g id="svg_1" class="" fill="#ffffff" fill-opacity="1">
	<path d="M12.741107870055227,0.24710102253784005 c-0.16047663701667564,-0.16477955589984583 -0.35070406174811897,-0.24710099839667213 -0.5705046575512568,-0.24710099839667213 H0.8114416338801117 c-0.2198894041246751,0 -0.4099836163738138,0.08232144249682637 -0.5705934658727939,0.24710099839667213 C0.08023831850833747,0.4120628063126092 -2.8320922462317876e-16,0.6070921894498055 -2.8320922462317876e-16,0.8325536276992764 c0,0.2254158812807398 0.08023831850833786,0.4204452644179363 0.24084816800731823,0.5852703772865118 l5.679602991392319,5.827055199469589 c0.1607874661420534,0.16477955589984583 0.35088167839119155,0.2472832262715964 0.5705934658727939,0.2472832262715964 s0.4099836163738138,-0.08250367037175019 0.5704602533904893,-0.2472832262715964 L12.741107870055227,1.4177784480170557 c0.16043223285590727,-0.16477955589984583 0.24098138048962334,-0.35980893903704186 0.24098138048962334,-0.5852703772865118 C12.982089250544853,0.6070921894498055 12.901540102911138,0.4120628063126092 12.741107870055227,0.24710102253784005 z" id="svg_2" fill="#ffffff" fill-opacity="1"/>
</g><g id="svg_3" class="">
</g><g id="svg_4" class="">
</g><g id="svg_5" class="">
</g><g id="svg_6" class="">
</g><g id="svg_7" class="">
</g><g id="svg_8" class="">
</g><g id="svg_9" class="">
</g><g id="svg_10" class="">
</g><g id="svg_11" class="">
</g><g id="svg_12" class="">
</g><g id="svg_13" class="">
</g><g id="svg_14" class="">
</g><g id="svg_15" class="">
</g><g id="svg_16" class="">
</g><g id="svg_17" class="">
</g></g></svg>