<svg height='100px' width='100px'  fill="#000000" xmlns="http://www.w3.org/2000/svg" xmlns:xlink="http://www.w3.org/1999/xlink" version="1.1" x="0px" y="0px" viewBox="0 0 100 100" style="enable-background:new 0 0 100 100;" xml:space="preserve"><g><path d="M50,29.4167175c-11.348999,0-20.583313,9.2342529-20.583313,20.583313c0,11.348999,9.234314,20.583313,20.583313,20.583313   s20.583313-9.234314,20.583313-20.583313C70.583313,38.6509705,61.348999,29.4167175,50,29.4167175z M50,66.4666443   c-9.0795288,0-16.4666748-7.387146-16.4666748-16.4666138c0-9.0795288,7.387146-16.4666748,16.4666748-16.4666748   c9.0794678,0,16.4666138,7.387146,16.4666138,16.4666748C66.4666138,59.0794983,59.0794678,66.4666443,50,66.4666443z"></path><path d="M97.6170044,48.9387512C86.2218628,29.9916077,68.8666382,19.1250305,50,19.1250305   S13.7781372,29.9916077,2.3829956,48.9387512l-0.6372681,1.0612793l0.6372681,1.0612793   C13.7762451,70.0083923,31.1333618,80.8749695,50,80.8749695s36.2237549-10.8665771,47.6170044-29.8136597l0.6372681-1.0612793   L97.6170044,48.9387512z M50,76.7583313c-17.0374146,0-32.8087769-9.7349243-43.4379883-26.7583008   C17.1932983,32.976593,32.9644165,23.2417297,50,23.2417297s32.8067017,9.7348633,43.4379883,26.7583008   C82.8087769,67.023407,67.0374146,76.7583313,50,76.7583313z"></path></g></svg>