<svg xmlns="http://www.w3.org/2000/svg" xmlns:xlink="http://www.w3.org/1999/xlink" width="100" height="100" viewBox="0 0 100 100"><g transform="translate(50 50) scale(-0.69 0.69) rotate(0) translate(-50 -50)" style="fill:#1A1A1A"><svg fill="#1A1A1A" xmlns:dc="http://purl.org/dc/elements/1.1/" xmlns:cc="http://creativecommons.org/ns#" xmlns:rdf="http://www.w3.org/1999/02/22-rdf-syntax-ns#" xmlns:svg="http://www.w3.org/2000/svg" xmlns="http://www.w3.org/2000/svg" xmlns:sodipodi="http://sodipodi.sourceforge.net/DTD/sodipodi-0.dtd" xmlns:inkscape="http://www.inkscape.org/namespaces/inkscape" version="1.1" x="0px" y="0px" viewBox="0 0 85.333345 85.333345" xml:space="preserve"><path style="" d="m 66.397958,2.6673839 c -7.476973,0 -13.559978,6.0830067 -13.559978,13.5599781 0,1.703134 0.328172,3.328298 0.903114,4.830744 L 30.273328,35.192793 c -2.424524,-3.693737 -6.598731,-6.141716 -11.337943,-6.141716 -7.476974,0 -13.5599788,6.083006 -13.5599788,13.559977 0,7.476974 6.0830048,13.559979 13.5599788,13.559979 4.739212,0 8.913419,-2.447978 11.337943,-6.141717 l 23.462471,14.240627 c -0.583081,1.526854 -0.900468,3.158543 -0.900468,4.841336 0,3.621871 1.41117,7.029853 3.97265,9.589976 2.64284,2.64284 6.114618,3.964705 9.587329,3.964705 3.47271,0 6.947136,-1.321865 9.589977,-3.964705 2.561479,-2.561479 3.970001,-5.968105 3.970001,-9.589976 0,-3.62187 -1.408522,-7.027204 -3.970001,-9.587329 -5.287036,-5.288392 -13.887624,-5.288392 -19.174658,0 -0.710544,0.710543 -1.322415,1.49158 -1.851255,2.317379 L 31.526036,47.619242 c 0.619691,-1.55126 0.971976,-3.23861 0.971976,-5.008188 0,-1.769576 -0.350993,-3.456926 -0.969327,-5.008187 L 54.96467,23.486718 c 2.406897,3.780522 6.627631,6.300623 11.433288,6.300623 7.476972,0 13.559979,-6.083006 13.559979,-13.559979 0,-7.4769714 -6.083007,-13.5599781 -13.559979,-13.5599781 z m 0,2.7119958 c 5.981307,0 10.847982,4.8666763 10.847982,10.8479823 0,5.981309 -4.866675,10.847983 -10.847982,10.847983 -5.981307,0 -10.847982,-4.866674 -10.847982,-10.847983 0,-5.981306 4.865319,-10.8479823 10.847982,-10.8479823 z M 18.938034,31.763073 c 5.981306,0 10.847981,4.866676 10.847981,10.847981 0,5.981308 -4.866675,10.847984 -10.847981,10.847984 -5.981308,0 -10.8479837,-4.866676 -10.8479837,-10.847984 0,-5.981305 4.8666757,-10.847981 10.8479837,-10.847981 z m 47.459924,26.505521 c 2.77844,0 5.554507,1.057467 7.669862,3.172822 2.048914,2.048912 3.17812,4.773452 3.17812,7.669863 0,2.896411 -1.127851,5.623599 -3.17812,7.672512 -4.229356,4.229356 -11.110367,4.229356 -15.339724,0 -2.048913,-2.048913 -3.17812,-4.776101 -3.17812,-7.672512 0,-2.896411 1.129207,-5.620951 3.17812,-7.669863 2.115355,-2.115355 4.891423,-3.172822 7.669862,-3.172822 z" fill="#1A1A1A" fill-opacity="1" stroke="none"></path></svg></g></svg>