<?xml version="1.0" standalone="no"?>
<!DOCTYPE svg PUBLIC "-//W3C//DTD SVG 20010904//EN"
 "http://www.w3.org/TR/2001/REC-SVG-20010904/DTD/svg10.dtd">
<svg version="1.0" xmlns="http://www.w3.org/2000/svg"
 width="29.000000pt" height="28.000000pt" viewBox="0 0 29.000000 28.000000"
 preserveAspectRatio="xMidYMid meet">

<g transform="translate(0.000000,28.000000) scale(0.100000,-0.100000)"
fill="#000000" stroke="none">
<path d="M122 190 c1 -16 4 -30 8 -30 3 0 6 14 6 30 0 17 -3 30 -7 30 -4 0 -7
-13 -7 -30z"/>
<path d="M50 130 l0 -70 80 0 80 0 0 70 0 70 -32 -1 c-31 -2 -31 -2 -5 -6 26
-4 27 -7 27 -64 l0 -59 -70 0 -70 0 0 59 c0 57 1 60 28 64 25 4 25 4 -5 6
l-33 1 0 -70z"/>
<path d="M121 143 c4 -20 -2 -24 -18 -12 -10 7 -8 2 5 -11 22 -24 22 -24 40
-5 9 11 13 17 8 13 -14 -11 -28 -10 -21 1 3 5 1 13 -5 16 -6 4 -10 3 -9 -2z"/>
</g>
</svg>
